<svg width="199.99999999999997" height="199.99999999999997" xmlns="http://www.w3.org/2000/svg">

 <g>
  <title>background</title>
  <rect fill="none" id="canvas_background" height="402" width="582" y="-1" x="-1"/>
 </g>
 <g>
  <title>Layer 1</title>
  <path opacity="0.3" id="svg_2" d="m56,20.5l0,2.2l0,2l0,50.3c0,0.7 1.1,2 1.8,2l86.2,0l0,-52.3l0,-2l0,-2.7l-86.2,0c-0.7,0 -1.8,-0.3 -1.8,0.5zm2,1.5l84,0l0,1l-84,0l0,-1zm0,3l84,0l0,50l-84,0l0,-50z"/>
  <circle opacity="0.3" id="svg_3" r="1.5" cy="83.1" cx="100.9"/>
  <path opacity="0.3" id="svg_4" d="m125,94l0,-1l-11,0l0,-5l34.1,0c0.9,0 0.9,-1.3 0.9,-2.2l0,-69.6c0,-0.9 0,-1.2 -0.9,-1.2l-95.2,0c-0.9,0 -1.9,0.3 -1.9,1.2l0,69.6c0,0.9 1,2.2 1.9,2.2l33.1,0l0,5l-11,0l0,1l-70,0l0,11l69,0l0,81l10,0l0,-81l100,0l0,81l10,0l0,-81.5l0,-5.3l0,-5.2l-69,0zm-72,-77l94,0l0,62l-94,0l0,-62zm0,69l0,-5l94,0l0,5l-32.9,0l-27.2,0l-33.9,0zm59,2l0,5l-24,0l0,-5l24,0zm80,11.2l0,5.3l0,79.5l-6,0l0,-79.5l0,-1.5l-1.5,0l-99.8,0l-2.7,0l0,1.5l0,79.5l-6,0l0,-79.5l0,-1.5l-1.8,0l-67.2,0l0,-7l185,0l0,3.2z"/>
  <path opacity="0.3" id="svg_5" d="m29.4,124l-2.4,0l0,1.7l0,5.6l0,2.6l2.4,0l15.1,0l1.5,0l0,-2.6l0,-5.6l0,-1.7l-1.5,0l-15.1,0zm14.6,8l-15,0l0,-6l15,0l0,6z"/>
  <path opacity="0.3" id="svg_6" d="m5,147l62,0l0,-35l-62,0l0,35zm2,-33l58,0l0,31l-58,0l0,-31z"/>
  <path opacity="0.3" id="svg_7" d="m5,186l62,0l0,-35l-62,0l0,35zm2,-33l58,0l0,31l-58,0l0,-31z"/>
  <path opacity="0.3" id="svg_8" d="m29.4,164l-2.4,0l0,1.2l0,5.6l0,2.1l2.4,0l15.1,0l1.5,0l0,-2.1l0,-5.6l0,-1.2l-1.5,0l-15.1,0zm14.6,7l-15,0l0,-5l15,0l0,5z"/>
  <polygon opacity="0.3" id="svg_9" points="86.7,36.2 85.3,34.8 69.7,50.2 85.3,65.8 86.7,64.4 72.5,50.2  "/>
  <polygon opacity="0.3" id="svg_10" points="116.4000015258789,37.96303781867027 130.60000610351562,51.96303781867027 116.4000015258789,66.16303858160973 117.80000305175781,67.56304010748863 133.39999389648438,51.96303781867027 117.80000305175781,36.56303629279137 "/>
  <rect opacity="0.3" id="svg_11" y="34.1" x="99.8" width="2" transform="matrix(-0.9111,-0.4121,0.4121,-0.9111,172.0267,137.3056) " height="32.1"/>
 </g>
</svg>