<svg width="99.999995" height="99.999995" xmlns="http://www.w3.org/2000/svg">

 <g>
  <title>background</title>
  <rect fill="none" id="canvas_background" height="402" width="582" y="-1" x="-1"/>
 </g>
 <g>
  <title>Layer 1</title>
  <path opacity="0.3" fill="#000000" fill-rule="nonzero" stroke-width="3.8" stroke-linecap="round" stroke-linejoin="round" stroke-miterlimit="4" stroke-dashoffset="0" id="rect4208" d="m20,0c-11.08001,0 -20,8.91999 -20,20l0,60c0,11.08001 8.91999,20 20,20l60,0c11.08001,0 20,-8.91999 20,-20l0,-60c0,-11.08001 -8.91999,-20 -20,-20l-60,0zm30,16.85352a23.97573,5.23591 0 0 1 23.97656,5.23437a23.97573,5.23591 0 0 1 -23.97656,5.23633a23.97573,5.23591 0 0 1 -23.97656,-5.23633a23.97573,5.23591 0 0 1 23.97656,-5.23437zm23.89648,7.23242l0,15.79101a23.97573,5.59186 0 0 1 0.08008,0.43164a23.97573,5.59186 0 0 1 -0.08008,0.36914l0,0.03321l-0.00781,0a23.97573,5.59186 0 0 1 -23.88867,5.18945a23.97573,5.59186 0 0 1 -23.97656,-5.5918a23.97573,5.59186 0 0 1 0.07812,-0.36718l0,-15.78711a23.97573,5.59186 0 0 0 23.89649,5.15625a23.97573,5.59186 0 0 0 23.89843,-5.22461zm0,18.5625l0,15.79101a23.97572,5.59186 0 0 1 0.08008,0.43164a23.97572,5.59186 0 0 1 -0.08008,0.36914l0,0.03321l-0.00781,0a23.97572,5.59186 0 0 1 -23.88867,5.18945a23.97572,5.59186 0 0 1 -23.97656,-5.5918a23.97572,5.59186 0 0 1 0.07812,-0.36718l0,-15.78711a23.97573,5.59186 0 0 0 23.89649,5.15625a23.97573,5.59186 0 0 0 23.89843,-5.22461zm0,18.68554l0,15.78907a23.97572,5.59185 0 0 1 0.08008,0.43164a23.97572,5.59185 0 0 1 -0.08008,0.37109l0,0.0332l-0.00781,0a23.97572,5.59185 0 0 1 -23.88867,5.1875a23.97572,5.59185 0 0 1 -23.97656,-5.59179a23.97572,5.59185 0 0 1 0.07812,-0.36524l0,-15.78906a23.97572,5.59185 0 0 0 23.89649,5.1582a23.97572,5.59185 0 0 0 23.89843,-5.22461z"/>
 </g>
</svg>