<svg width="512" height="512" xmlns="http://www.w3.org/2000/svg">

 <g>
  <title>background</title>
  <rect fill="none" id="canvas_background" height="402" width="582" y="-1" x="-1"/>
 </g>
 <g>
  <title>Layer 1</title>
  <path opacity="0.3" id="svg_2" fill="#424852" d="m77.744,101.496l33.005,369.461l148.16,41.043l148.29,-41.022l33.057,-369.482l-362.512,0zm290.904,120.819l-4.131,46.403l-12.453,139.154l-93.075,25.733l-0.062,0.021l-93.014,-25.754l-6.491,-72.783l45.571,0l3.377,37.755l50.568,13.646l0.049,-0.017l50.628,-13.652l6.904,-62.882l-159.276,0.414l-4.5,-43l167.613,-1.955l3.387,-46.045l-175.5,0.5l-2.964,-42.827l113.709,0l113.718,0l-4.058,45.289z"/>
  <polygon id="svg_3" points="77.744,101.496 77.744,101.496 77.744,101.495  " fill="#424852"/>
  <polygon opacity="0.3" id="svg_4" points="205.31300354003906,63.11399841308594 176.22900390625,63.11399841308594 176.3000030517578,19.488000869750977 205.31300354003906,19.488000869750977 205.31300354003906,3.2049999237060547 159.94500732421875,3.2049999237060547 159.94500732421875,19.488000869750977 160.01699829101562,19.488000869750977 159.9459991455078,63.11399841308594 159.94500732421875,63.11399841308594 159.94500732421875,79.39700317382812 205.31300354003906,79.39700317382812 " fill="#424852"/>
  <polygon opacity="0.3" id="svg_5" points="281.7170104980469,62.95800018310547 245.62899780273438,19.393999099731445 279.3689880371094,19.393999099731445 279.3689880371094,3.2049999237060547 221.2740020751953,3.2049999237060547 221.2740020751953,18.666000366210938 257.52301025390625,62.229000091552734 218.927001953125,62.229000091552734 218.927001953125,78.41799926757812 281.7170104980469,78.41799926757812 " fill="#424852"/>
  <polygon opacity="0.3" id="svg_6" points="357.05499267578125,62.95800018310547 320.9670104980469,19.393999099731445 354.7070007324219,19.393999099731445 354.7070007324219,3.2049999237060547 296.6130065917969,3.2049999237060547 296.6130065917969,18.666000366210938 332.8609924316406,62.229000091552734 294.2659912109375,62.229000091552734 294.2659912109375,78.41799926757812 357.05499267578125,78.41799926757812 " fill="#424852"/>
 </g>
</svg>