<svg width="200" height="200" xmlns="http://www.w3.org/2000/svg">

 <g>
  <title>background</title>
  <rect fill="none" id="canvas_background" height="402" width="582" y="-1" x="-1"/>
 </g>
 <g>
  <title>Layer 1</title>
  <path opacity="0.3" id="svg_2" d="m174.7,23.4c-0.4,-0.2 -8.8,-4 -19.8,-4c-10.8,0 -26.1,3.8 -37.1,22c-4.8,7.9 -4.9,17.4 -1,25l-15.9,30.6l-14.3,-22.7c7.9,-11.2 8.4,-26.3 1.2,-38c-6.4,-10.3 -18,-16.5 -30.2,-16c-0.4,0 -0.9,0.3 -1.1,0.7c-0.2,0.4 -0.2,0.9 0,1.2l14,22.3l-7.5,16.7l-18.3,-0.5l-14,-22.3c-0.2,-0.4 -0.7,-0.6 -1.1,-0.6c-0.4,0 -0.9,0.3 -1.1,0.7c-5.7,10.8 -5.2,23.9 1.2,34.2c7.5,12 21.7,18.1 35.5,15.4l22,35.2l-26.8,51.7c-0.3,0.6 -0.1,1.3 0.5,1.6l6.1,3.7c0.2,0.1 0.4,0.2 0.6,0.2c0.4,0 0.8,-0.2 1,-0.5l28.7,-40.8l20.9,33.5c2.3,3.7 6.3,5.7 10.4,5.7c2.2,0 4.4,-0.6 6.5,-1.9l0.8,-0.5c2.8,-1.7 4.7,-4.4 5.4,-7.6c0.7,-3.2 0.2,-6.4 -1.5,-9.2l-26.6,-42.5l25.8,-36.7c8.8,0 17.1,-4.8 21.7,-12.4c5.3,-8.8 5,-19.7 -0.9,-28c0.4,-1.5 1,-2.8 1.6,-3.8c5.5,-8.7 12.8,-9.9 12.9,-9.9c0.5,-0.1 1,-0.5 1.1,-1.1c0.1,-0.6 -0.2,-1.1 -0.7,-1.4zm-107.7,62.6c-0.3,-0.4 -0.8,-0.7 -1.3,-0.6c-13.1,2.9 -26.7,-2.8 -33.8,-14.1c-5.6,-8.9 -6.3,-20.1 -2.1,-29.7l13.1,21c0.2,0.4 0.6,0.6 1,0.6l19.8,0.6c0.5,0 1,-0.3 1.2,-0.7l8.1,-18c0.2,-0.4 0.1,-0.8 -0.1,-1.2l-13.1,-21c10.5,0.4 20.2,5.9 25.8,14.9c6.9,11 6.3,25.4 -1.5,35.8c-0.3,0.4 -0.3,1 -0.1,1.4l15.5,24.7l-10.9,20.9l-21.6,-34.6zm70.6,74.6c1.4,2.2 1.8,4.8 1.2,7.3c-0.6,2.5 -2.1,4.7 -4.3,6l-0.8,0.5c-4.5,2.8 -10.5,1.5 -13.4,-3.1l-21.4,-34.3l12.7,-18.1l26,41.7zm-27,-44.6c0,0 0,0 0,0l-14.2,20.3c0,0 0,0 0,0l-29.1,41.4l-4.1,-2.5l49,-94.4c1.9,2.6 4.3,4.8 7.1,6.6c2.8,1.7 5.9,2.8 9.1,3.3l-17.8,25.3zm19.5,-27.7c-3.4,-0.3 -6.5,-1.4 -9.5,-3.1c-2.9,-1.8 -5.3,-4.1 -7.1,-6.9l4.8,-9.2c1.9,2.9 4.5,5.4 7.7,7.4c3.1,1.9 6.5,3 10.1,3.4l-6,8.4zm29.2,-53.9c-0.9,1.4 -1.6,3.1 -2.1,5.1c-0.1,0.4 0,0.7 0.2,1c5.6,7.5 6,17.4 1.1,25.5c-4.2,6.9 -11.7,11 -19.7,11c0,0 0,0 0,0c-4.1,0 -8.1,-0.9 -11.6,-3c-10.7,-6.5 -14,-20.5 -7.4,-31.3c8.4,-13.8 20.2,-20.8 35,-20.8c6.5,0 12.2,1.5 15.5,2.6c-2.9,1.3 -7.3,4.1 -11,9.9z"/>
  <path opacity="0.3" id="svg_3" d="m153.1,28.6c-0.3,0.1 -32.4,6.7 -28.8,32.3c0.1,0.6 0.6,1.1 1.2,1.1c0.1,0 0.1,0 0.2,0c0.7,-0.1 1.2,-0.7 1.1,-1.4c-3.2,-23.3 25.6,-29.3 26.8,-29.5c0.7,-0.1 1.1,-0.8 1,-1.5c-0.2,-0.6 -0.8,-1.1 -1.5,-1z"/>
 </g>
</svg>